<svg width="140" height="23" viewBox="0 0 140 23" fill="none" xmlns="http://www.w3.org/2000/svg">
<path class="full-name-svg" d="M10.44 14.7H5.44L4.28 17H0.16L7.78 2.9H12.3L14.94 17H10.8L10.44 14.7ZM9.98 11.72L9.28 7.14L6.96 11.72H9.98ZM22.7577 2.2L20.1377 17H16.1977L18.8177 2.2H22.7577ZM26.51 4.74C25.8967 4.74 25.41 4.58667 25.05 4.28C24.7033 3.97333 24.53 3.58 24.53 3.1C24.53 2.67333 24.6433 2.28 24.87 1.92C25.11 1.54667 25.43 1.25333 25.83 1.04C26.2433 0.813332 26.7033 0.699999 27.21 0.699999C27.8233 0.699999 28.3033 0.859999 28.65 1.18C29.01 1.48667 29.19 1.88667 29.19 2.38C29.19 2.80667 29.07 3.2 28.83 3.56C28.6033 3.92 28.2833 4.20667 27.87 4.42C27.4567 4.63333 27.0033 4.74 26.51 4.74ZM28.27 5.78L26.29 17H22.35L24.35 5.78H28.27ZM41.2058 2.9C42.6858 2.9 43.8124 3.23333 44.5858 3.9C45.3591 4.55333 45.7458 5.42667 45.7458 6.52C45.7458 6.85333 45.7191 7.15333 45.6658 7.42C45.5058 8.38 45.0991 9.22667 44.4458 9.96C43.7924 10.68 42.9258 11.1933 41.8458 11.5L44.0458 17H39.6858L37.8058 11.8H37.3858L36.4658 17H32.5258L35.0258 2.9H41.2058ZM37.8658 9.12H39.8058C40.8458 9.12 41.4591 8.62667 41.6458 7.64C41.6724 7.48 41.6858 7.36667 41.6858 7.3C41.6858 6.94 41.5658 6.66 41.3258 6.46C41.0991 6.26 40.7591 6.16 40.3058 6.16H38.3658L37.8658 9.12ZM52.0484 5.78L50.0684 17H46.1484L48.1284 5.78H52.0484ZM57.002 13.74H61.782L61.202 17H52.082L52.642 13.9L57.962 9.04H53.542L54.122 5.78H63.022L62.482 8.88L57.002 13.74ZM63.1788 11.38C63.3921 10.22 63.7854 9.20667 64.3588 8.34C64.9321 7.47333 65.6188 6.80667 66.4188 6.34C67.2321 5.87333 68.0854 5.64 68.9788 5.64C69.7521 5.64 70.3921 5.79333 70.8988 6.1C71.4054 6.40667 71.7588 6.82 71.9588 7.34L72.2388 5.78H76.1588L74.1788 17H70.2588L70.5388 15.44C70.1521 15.96 69.6454 16.3733 69.0188 16.68C68.3921 16.9867 67.6988 17.14 66.9388 17.14C65.7654 17.14 64.8254 16.7533 64.1188 15.98C63.4121 15.1933 63.0588 14.1267 63.0588 12.78C63.0588 12.34 63.0988 11.8733 63.1788 11.38ZM71.2588 11.38C71.2988 11.18 71.3188 10.9933 71.3188 10.82C71.3188 10.26 71.1588 9.82667 70.8388 9.52C70.5321 9.21333 70.1321 9.06 69.6388 9.06C69.0521 9.06 68.5254 9.26667 68.0588 9.68C67.5921 10.08 67.2988 10.6467 67.1788 11.38C67.1388 11.58 67.1188 11.7733 67.1188 11.96C67.1188 12.52 67.2721 12.9533 67.5788 13.26C67.8988 13.5667 68.3054 13.72 68.7988 13.72C69.3854 13.72 69.9121 13.5133 70.3788 13.1C70.8454 12.6867 71.1388 12.1133 71.2588 11.38ZM88.3359 7.06C88.3493 6.99333 88.3559 6.9 88.3559 6.78C88.3559 6.46 88.2559 6.21333 88.0559 6.04C87.8559 5.85333 87.5826 5.76 87.2359 5.76C86.8759 5.76 86.5826 5.85333 86.3559 6.04C86.1426 6.21333 86.0359 6.46 86.0359 6.78C86.0359 7.12667 86.2026 7.42667 86.5359 7.68C86.8826 7.92 87.4159 8.20667 88.1359 8.54C88.9093 8.9 89.5426 9.24 90.0359 9.56C90.5426 9.86667 90.9759 10.28 91.3359 10.8C91.6959 11.32 91.8759 11.96 91.8759 12.72C91.8759 13.4933 91.6826 14.2 91.2959 14.84C90.9226 15.4667 90.3759 15.98 89.6559 16.38C88.9359 16.78 88.0826 17.02 87.0959 17.1L86.9759 17.74C87.5626 17.74 88.0759 17.8933 88.5159 18.2C88.9693 18.5067 89.1959 18.9733 89.1959 19.6C89.1959 19.8133 89.1826 19.98 89.1559 20.1C89.0093 20.9133 88.6159 21.5133 87.9759 21.9C87.3359 22.2867 86.6226 22.48 85.8359 22.48H82.5759L82.9359 20.42H85.7559C85.9559 20.42 86.1226 20.38 86.2559 20.3C86.3893 20.2333 86.4626 20.1333 86.4759 20C86.5293 19.72 86.3359 19.58 85.8959 19.58H84.3359L84.7959 17.04C83.5693 16.84 82.6026 16.42 81.8959 15.78C81.2026 15.1267 80.8559 14.26 80.8559 13.18C80.8559 13.0733 80.8693 12.8867 80.8959 12.62H85.0359C84.9959 13.0733 85.0893 13.4267 85.3159 13.68C85.5426 13.9333 85.8893 14.06 86.3559 14.06C86.7426 14.06 87.0493 13.9733 87.2759 13.8C87.5159 13.6267 87.6359 13.38 87.6359 13.06C87.6359 12.6867 87.4626 12.38 87.1159 12.14C86.7826 11.9 86.2359 11.62 85.4759 11.3C84.7159 10.98 84.0893 10.68 83.5959 10.4C83.1026 10.1067 82.6759 9.71333 82.3159 9.22C81.9559 8.71333 81.7759 8.08667 81.7759 7.34C81.7759 6.36667 82.0159 5.53333 82.4959 4.84C82.9759 4.13333 83.6426 3.6 84.4959 3.24C85.3626 2.86667 86.3493 2.68 87.4559 2.68C88.4559 2.68 89.3426 2.84 90.1159 3.16C90.8893 3.46667 91.4893 3.91333 91.9159 4.5C92.3559 5.08667 92.5759 5.78 92.5759 6.58C92.5759 6.79333 92.5693 6.95333 92.5559 7.06H88.3359ZM93.4327 11.38C93.646 10.22 94.0393 9.20667 94.6127 8.34C95.186 7.47333 95.8727 6.80667 96.6727 6.34C97.486 5.87333 98.3393 5.64 99.2327 5.64C100.006 5.64 100.646 5.79333 101.153 6.1C101.659 6.40667 102.013 6.82 102.213 7.34L102.493 5.78H106.413L104.433 17H100.513L100.793 15.44C100.406 15.96 99.8993 16.3733 99.2727 16.68C98.646 16.9867 97.9527 17.14 97.1927 17.14C96.0193 17.14 95.0793 16.7533 94.3727 15.98C93.666 15.1933 93.3127 14.1267 93.3127 12.78C93.3127 12.34 93.3527 11.8733 93.4327 11.38ZM101.513 11.38C101.553 11.18 101.573 10.9933 101.573 10.82C101.573 10.26 101.413 9.82667 101.093 9.52C100.786 9.21333 100.386 9.06 99.8927 9.06C99.306 9.06 98.7793 9.26667 98.3127 9.68C97.846 10.08 97.5527 10.6467 97.4327 11.38C97.3927 11.58 97.3727 11.7733 97.3727 11.96C97.3727 12.52 97.526 12.9533 97.8327 13.26C98.1527 13.5667 98.5593 13.72 99.0527 13.72C99.6393 13.72 100.166 13.5133 100.633 13.1C101.099 12.6867 101.393 12.1133 101.513 11.38ZM116.046 5.68C117.14 5.68 117.993 5.99333 118.606 6.62C119.22 7.24667 119.526 8.12 119.526 9.24C119.526 9.62667 119.486 10.0333 119.406 10.46L118.246 17H114.326L115.386 10.98C115.426 10.78 115.446 10.6 115.446 10.44C115.446 9.96 115.306 9.58667 115.026 9.32C114.76 9.05333 114.38 8.92 113.886 8.92C113.34 8.92 112.873 9.08667 112.486 9.42C112.1 9.75333 111.84 10.2133 111.706 10.8L110.606 17H106.666L109.286 2.2H113.226L112.306 7.38C112.746 6.87333 113.286 6.46667 113.926 6.16C114.566 5.84 115.273 5.68 116.046 5.68ZM124.537 4.74C123.924 4.74 123.437 4.58667 123.077 4.28C122.731 3.97333 122.557 3.58 122.557 3.1C122.557 2.67333 122.671 2.28 122.897 1.92C123.137 1.54667 123.457 1.25333 123.857 1.04C124.271 0.813332 124.731 0.699999 125.237 0.699999C125.851 0.699999 126.331 0.859999 126.677 1.18C127.037 1.48667 127.217 1.88667 127.217 2.38C127.217 2.80667 127.097 3.2 126.857 3.56C126.631 3.92 126.311 4.20667 125.897 4.42C125.484 4.63333 125.031 4.74 124.537 4.74ZM126.297 5.78L124.317 17H120.377L122.377 5.78H126.297ZM135.89 5.68C136.983 5.68 137.836 6 138.45 6.64C139.076 7.26667 139.39 8.14 139.39 9.26C139.39 9.63333 139.35 10.0333 139.27 10.46L138.11 17H134.19L135.25 10.98C135.29 10.78 135.31 10.6 135.31 10.44C135.31 9.96 135.17 9.58667 134.89 9.32C134.623 9.05333 134.243 8.92 133.75 8.92C133.19 8.92 132.716 9.09333 132.33 9.44C131.943 9.78667 131.683 10.2667 131.55 10.88L130.47 17H126.53L128.53 5.78H132.45L132.17 7.38C132.61 6.87333 133.15 6.46667 133.79 6.16C134.43 5.84 135.13 5.68 135.89 5.68Z" fill="#00F7FF"/>
</svg>
