<svg width="112" height="19" viewBox="0 0 112 19" fill="none" xmlns="http://www.w3.org/2000/svg">
<path class="full-name-svg" d="M8.552 12.16H4.552L3.624 14H0.328L6.424 2.72H10.04L12.152 14H8.84L8.552 12.16ZM8.184 9.776L7.624 6.112L5.768 9.776H8.184ZM18.4061 2.16L16.3101 14H13.1581L15.2541 2.16H18.4061ZM21.408 4.192C20.9173 4.192 20.528 4.06933 20.24 3.824C19.9627 3.57867 19.824 3.264 19.824 2.88C19.824 2.53867 19.9147 2.224 20.096 1.936C20.288 1.63733 20.544 1.40267 20.864 1.232C21.1947 1.05067 21.5627 0.959999 21.968 0.959999C22.4587 0.959999 22.8427 1.088 23.12 1.344C23.408 1.58933 23.552 1.90933 23.552 2.304C23.552 2.64533 23.456 2.96 23.264 3.248C23.0827 3.536 22.8267 3.76533 22.496 3.936C22.1653 4.10667 21.8027 4.192 21.408 4.192ZM22.816 5.024L21.232 14H18.08L19.68 5.024H22.816ZM33.1646 2.72C34.3486 2.72 35.25 2.98667 35.8686 3.52C36.4873 4.04267 36.7966 4.74133 36.7966 5.616C36.7966 5.88267 36.7753 6.12267 36.7326 6.336C36.6046 7.104 36.2793 7.78133 35.7566 8.368C35.234 8.944 34.5406 9.35467 33.6766 9.6L35.4366 14H31.9486L30.4446 9.84H30.1086L29.3726 14H26.2206L28.2206 2.72H33.1646ZM30.4926 7.696H32.0446C32.8766 7.696 33.3673 7.30133 33.5166 6.512C33.538 6.384 33.5486 6.29333 33.5486 6.24C33.5486 5.952 33.4526 5.728 33.2606 5.568C33.0793 5.408 32.8073 5.328 32.4446 5.328H30.8926L30.4926 7.696ZM41.8388 5.024L40.2548 14H37.1188L38.7028 5.024H41.8388ZM45.8016 11.392H49.6256L49.1616 14H41.8656L42.3136 11.52L46.5696 7.632H43.0336L43.4976 5.024H50.6176L50.1856 7.504L45.8016 11.392ZM50.743 9.504C50.9137 8.576 51.2283 7.76533 51.687 7.072C52.1457 6.37867 52.695 5.84533 53.335 5.472C53.9857 5.09867 54.6683 4.912 55.383 4.912C56.0017 4.912 56.5137 5.03467 56.919 5.28C57.3243 5.52533 57.607 5.856 57.767 6.272L57.991 5.024H61.127L59.543 14H56.407L56.631 12.752C56.3217 13.168 55.9163 13.4987 55.415 13.744C54.9137 13.9893 54.359 14.112 53.751 14.112C52.8123 14.112 52.0603 13.8027 51.495 13.184C50.9297 12.5547 50.647 11.7013 50.647 10.624C50.647 10.272 50.679 9.89867 50.743 9.504ZM57.207 9.504C57.239 9.344 57.255 9.19467 57.255 9.056C57.255 8.608 57.127 8.26133 56.871 8.016C56.6257 7.77067 56.3057 7.648 55.911 7.648C55.4417 7.648 55.0203 7.81333 54.647 8.144C54.2737 8.464 54.039 8.91733 53.943 9.504C53.911 9.664 53.895 9.81867 53.895 9.968C53.895 10.416 54.0177 10.7627 54.263 11.008C54.519 11.2533 54.8443 11.376 55.239 11.376C55.7083 11.376 56.1297 11.2107 56.503 10.88C56.8763 10.5493 57.111 10.0907 57.207 9.504ZM70.8688 6.048C70.8794 5.99467 70.8848 5.92 70.8848 5.824C70.8848 5.568 70.8048 5.37067 70.6448 5.232C70.4848 5.08267 70.2661 5.008 69.9888 5.008C69.7008 5.008 69.4661 5.08267 69.2848 5.232C69.1141 5.37067 69.0288 5.568 69.0288 5.824C69.0288 6.10133 69.1621 6.34133 69.4288 6.544C69.7061 6.736 70.1328 6.96533 70.7088 7.232C71.3274 7.52 71.8341 7.792 72.2288 8.048C72.6341 8.29333 72.9808 8.624 73.2688 9.04C73.5568 9.456 73.7008 9.968 73.7008 10.576C73.7008 11.1947 73.5461 11.76 73.2368 12.272C72.9381 12.7733 72.5008 13.184 71.9248 13.504C71.3488 13.824 70.6661 14.016 69.8768 14.08L69.7808 14.592C70.2501 14.592 70.6608 14.7147 71.0128 14.96C71.3754 15.2053 71.5568 15.5787 71.5568 16.08C71.5568 16.2507 71.5461 16.384 71.5248 16.48C71.4074 17.1307 71.0928 17.6107 70.5808 17.92C70.0688 18.2293 69.4981 18.384 68.8688 18.384H66.2608L66.5488 16.736H68.8048C68.9648 16.736 69.0981 16.704 69.2048 16.64C69.3114 16.5867 69.3701 16.5067 69.3808 16.4C69.4234 16.176 69.2688 16.064 68.9168 16.064H67.6688L68.0368 14.032C67.0554 13.872 66.2821 13.536 65.7168 13.024C65.1621 12.5013 64.8848 11.808 64.8848 10.944C64.8848 10.8587 64.8954 10.7093 64.9168 10.496H68.2288C68.1968 10.8587 68.2714 11.1413 68.4528 11.344C68.6341 11.5467 68.9114 11.648 69.2848 11.648C69.5941 11.648 69.8394 11.5787 70.0208 11.44C70.2128 11.3013 70.3088 11.104 70.3088 10.848C70.3088 10.5493 70.1701 10.304 69.8928 10.112C69.6261 9.92 69.1888 9.696 68.5807 9.44C67.9728 9.184 67.4714 8.944 67.0768 8.72C66.6821 8.48533 66.3408 8.17067 66.0528 7.776C65.7648 7.37067 65.6208 6.86933 65.6208 6.272C65.6208 5.49333 65.8128 4.82667 66.1968 4.272C66.5808 3.70667 67.1141 3.28 67.7968 2.992C68.4901 2.69333 69.2794 2.544 70.1648 2.544C70.9648 2.544 71.6741 2.672 72.2928 2.928C72.9114 3.17333 73.3914 3.53067 73.7328 4C74.0848 4.46933 74.2608 5.024 74.2608 5.664C74.2608 5.83467 74.2554 5.96267 74.2448 6.048H70.8688ZM74.9461 9.504C75.1168 8.576 75.4315 7.76533 75.8901 7.072C76.3488 6.37867 76.8981 5.84533 77.5381 5.472C78.1888 5.09867 78.8715 4.912 79.5861 4.912C80.2048 4.912 80.7168 5.03467 81.1221 5.28C81.5275 5.52533 81.8101 5.856 81.9701 6.272L82.1941 5.024H85.3301L83.7461 14H80.6101L80.8341 12.752C80.5248 13.168 80.1195 13.4987 79.6181 13.744C79.1168 13.9893 78.5621 14.112 77.9541 14.112C77.0155 14.112 76.2635 13.8027 75.6981 13.184C75.1328 12.5547 74.8501 11.7013 74.8501 10.624C74.8501 10.272 74.8821 9.89867 74.9461 9.504ZM81.4101 9.504C81.4421 9.344 81.4581 9.19467 81.4581 9.056C81.4581 8.608 81.3301 8.26133 81.0741 8.016C80.8288 7.77067 80.5088 7.648 80.1141 7.648C79.6448 7.648 79.2235 7.81333 78.8501 8.144C78.4768 8.464 78.2421 8.91733 78.1461 9.504C78.1141 9.664 78.0981 9.81867 78.0981 9.968C78.0981 10.416 78.2208 10.7627 78.4661 11.008C78.7221 11.2533 79.0475 11.376 79.4421 11.376C79.9115 11.376 80.3328 11.2107 80.7061 10.88C81.0795 10.5493 81.3141 10.0907 81.4101 9.504ZM93.0371 4.944C93.9118 4.944 94.5945 5.19467 95.0851 5.696C95.5758 6.19733 95.8211 6.896 95.8211 7.792C95.8211 8.10133 95.7891 8.42667 95.7251 8.768L94.7971 14H91.6611L92.5091 9.184C92.5411 9.024 92.5571 8.88 92.5571 8.752C92.5571 8.368 92.4451 8.06933 92.2211 7.856C92.0078 7.64267 91.7038 7.536 91.3091 7.536C90.8718 7.536 90.4985 7.66933 90.1891 7.936C89.8798 8.20267 89.6718 8.57067 89.5651 9.04L88.6851 14H85.5331L87.6291 2.16H90.7811L90.0451 6.304C90.3971 5.89867 90.8291 5.57333 91.3411 5.328C91.8531 5.072 92.4185 4.944 93.0371 4.944ZM99.8299 4.192C99.3392 4.192 98.9499 4.06933 98.6619 3.824C98.3845 3.57867 98.2459 3.264 98.2459 2.88C98.2459 2.53867 98.3365 2.224 98.5179 1.936C98.7099 1.63733 98.9659 1.40267 99.2859 1.232C99.6165 1.05067 99.9845 0.959999 100.39 0.959999C100.881 0.959999 101.265 1.088 101.542 1.344C101.83 1.58933 101.974 1.90933 101.974 2.304C101.974 2.64533 101.878 2.96 101.686 3.248C101.505 3.536 101.249 3.76533 100.918 3.936C100.587 4.10667 100.225 4.192 99.8299 4.192ZM101.238 5.024L99.6539 14H96.5019L98.1019 5.024H101.238ZM108.912 4.944C109.786 4.944 110.469 5.2 110.96 5.712C111.461 6.21333 111.712 6.912 111.712 7.808C111.712 8.10667 111.68 8.42667 111.616 8.768L110.688 14H107.552L108.4 9.184C108.432 9.024 108.448 8.88 108.448 8.752C108.448 8.368 108.336 8.06933 108.112 7.856C107.898 7.64267 107.594 7.536 107.2 7.536C106.752 7.536 106.373 7.67467 106.064 7.952C105.754 8.22933 105.546 8.61333 105.44 9.104L104.576 14H101.424L103.024 5.024H106.16L105.936 6.304C106.288 5.89867 106.72 5.57333 107.232 5.328C107.744 5.072 108.304 4.944 108.912 4.944Z" fill="#00F7FF"/>
</svg>
