<svg id="visual" viewBox="0 0 900 600" width="900" height="600" xmlns="http://www.w3.org/2000/svg" xmlns:xlink="http://www.w3.org/1999/xlink" version="1.1">
<style>
    * {
        filter: brightness(90%);
    }
</style>
<g stroke-width="1" stroke-linejoin="bevel"><path d="M470 280.1L417 305.9L438 401.6Z" fill="#723bc0" stroke="#723bc0"></path><path d="M438 401.6L515 413.6L470 280.1Z" fill="#5a1fae" stroke="#5a1fae"></path><path d="M515 413.6L573 305.9L470 280.1Z" fill="#350d80" stroke="#350d80"></path><path d="M417 305.9L352 347.9L438 401.6Z" fill="#3f0b91" stroke="#3f0b91"></path><path d="M439 543.3L504 488.3L438 401.6Z" fill="#310e78" stroke="#310e78"></path><path d="M438 401.6L504 488.3L515 413.6Z" fill="#5214a8" stroke="#5214a8"></path><path d="M515 413.6L616 374.9L573 305.9Z" fill="#6a32ba" stroke="#6a32ba"></path><path d="M573 305.9L573 239.1L470 280.1Z" fill="#310e78" stroke="#310e78"></path><path d="M395 149.4L329 290.1L417 305.9Z" fill="#723bc0" stroke="#723bc0"></path><path d="M417 305.9L329 290.1L352 347.9Z" fill="#723bc0" stroke="#723bc0"></path><path d="M395 149.4L417 305.9L470 280.1Z" fill="#723bc0" stroke="#723bc0"></path><path d="M605 439.6L616 374.9L515 413.6Z" fill="#5a1fae" stroke="#5a1fae"></path><path d="M573 305.9L641 272.1L573 239.1Z" fill="#310e78" stroke="#310e78"></path><path d="M504 488.3L605 439.6L515 413.6Z" fill="#6229b4" stroke="#6229b4"></path><path d="M573 239.1L554 200.4L470 280.1Z" fill="#5a1fae" stroke="#5a1fae"></path><path d="M243 345.9L334 451.6L352 347.9Z" fill="#4905a2" stroke="#4905a2"></path><path d="M352 347.9L334 451.6L438 401.6Z" fill="#350d80" stroke="#350d80"></path><path d="M727 306.9L641 272.1L616 374.9Z" fill="#4905a2" stroke="#4905a2"></path><path d="M616 374.9L641 272.1L573 305.9Z" fill="#3f0b91" stroke="#3f0b91"></path><path d="M573 239.1L655 207.4L554 200.4Z" fill="#6229b4" stroke="#6229b4"></path><path d="M554 200.4L482 155.4L470 280.1Z" fill="#4905a2" stroke="#4905a2"></path><path d="M280 503.3L334 493.3L334 451.6Z" fill="#3a0c89" stroke="#3a0c89"></path><path d="M334 451.6L334 493.3L438 401.6Z" fill="#44089a" stroke="#44089a"></path><path d="M334 493.3L439 543.3L438 401.6Z" fill="#310e78" stroke="#310e78"></path><path d="M504 488.3L625 498.3L605 439.6Z" fill="#350d80" stroke="#350d80"></path><path d="M482 155.4L395 149.4L470 280.1Z" fill="#3f0b91" stroke="#3f0b91"></path><path d="M548 600L625 498.3L504 488.3Z" fill="#4905a2" stroke="#4905a2"></path><path d="M605 439.6L705 454.6L616 374.9Z" fill="#310e78" stroke="#310e78"></path><path d="M247 262.1L243 345.9L329 290.1Z" fill="#6229b4" stroke="#6229b4"></path><path d="M329 290.1L243 345.9L352 347.9Z" fill="#3f0b91" stroke="#3f0b91"></path><path d="M641 272.1L655 207.4L573 239.1Z" fill="#5214a8" stroke="#5214a8"></path><path d="M554 200.4L538 68.7L482 155.4Z" fill="#3a0c89" stroke="#3a0c89"></path><path d="M756 245.1L655 207.4L641 272.1Z" fill="#6229b4" stroke="#6229b4"></path><path d="M243 345.9L264 456.6L334 451.6Z" fill="#3a0c89" stroke="#3a0c89"></path><path d="M267 189.4L247 262.1L329 290.1Z" fill="#6229b4" stroke="#6229b4"></path><path d="M264 456.6L280 503.3L334 451.6Z" fill="#5214a8" stroke="#5214a8"></path><path d="M357 600L463 600L439 543.3Z" fill="#350d80" stroke="#350d80"></path><path d="M395 149.4L267 189.4L329 290.1Z" fill="#4905a2" stroke="#4905a2"></path><path d="M357 600L439 543.3L334 493.3Z" fill="#3a0c89" stroke="#3a0c89"></path><path d="M439 543.3L463 600L504 488.3Z" fill="#350d80" stroke="#350d80"></path><path d="M710 528.3L705 454.6L625 498.3Z" fill="#5a1fae" stroke="#5a1fae"></path><path d="M625 498.3L705 454.6L605 439.6Z" fill="#5214a8" stroke="#5214a8"></path><path d="M705 454.6L727 306.9L616 374.9Z" fill="#6229b4" stroke="#6229b4"></path><path d="M463 600L548 600L504 488.3Z" fill="#6a32ba" stroke="#6a32ba"></path><path d="M483 58.7L341 97.7L395 149.4Z" fill="#6229b4" stroke="#6229b4"></path><path d="M395 149.4L341 97.7L267 189.4Z" fill="#350d80" stroke="#350d80"></path><path d="M483 58.7L395 149.4L482 155.4Z" fill="#6a32ba" stroke="#6a32ba"></path><path d="M280 503.3L357 600L334 493.3Z" fill="#44089a" stroke="#44089a"></path><path d="M654 117.7L538 68.7L554 200.4Z" fill="#5a1fae" stroke="#5a1fae"></path><path d="M538 68.7L483 58.7L482 155.4Z" fill="#5a1fae" stroke="#5a1fae"></path><path d="M655 207.4L654 117.7L554 200.4Z" fill="#5a1fae" stroke="#5a1fae"></path><path d="M695 145.4L654 117.7L655 207.4Z" fill="#5a1fae" stroke="#5a1fae"></path><path d="M267 189.4L186 260.1L247 262.1Z" fill="#5a1fae" stroke="#5a1fae"></path><path d="M247 262.1L186 260.1L243 345.9Z" fill="#6229b4" stroke="#6229b4"></path><path d="M147 424.6L185 479.3L264 456.6Z" fill="#5214a8" stroke="#5214a8"></path><path d="M264 456.6L185 479.3L280 503.3Z" fill="#44089a" stroke="#44089a"></path><path d="M160 167.4L186 260.1L267 189.4Z" fill="#6a32ba" stroke="#6a32ba"></path><path d="M756 245.1L695 145.4L655 207.4Z" fill="#3f0b91" stroke="#3f0b91"></path><path d="M655 600L710 528.3L625 498.3Z" fill="#6229b4" stroke="#6229b4"></path><path d="M788 322.9L756 245.1L727 306.9Z" fill="#5214a8" stroke="#5214a8"></path><path d="M788 322.9L727 306.9L705 454.6Z" fill="#5a1fae" stroke="#5a1fae"></path><path d="M727 306.9L756 245.1L641 272.1Z" fill="#310e78" stroke="#310e78"></path><path d="M147 424.6L264 456.6L243 345.9Z" fill="#5a1fae" stroke="#5a1fae"></path><path d="M280 503.3L247 600L357 600Z" fill="#310e78" stroke="#310e78"></path><path d="M548 600L655 600L625 498.3Z" fill="#6229b4" stroke="#6229b4"></path><path d="M186 260.1L152 329.9L243 345.9Z" fill="#310e78" stroke="#310e78"></path><path d="M810 462.6L788 322.9L705 454.6Z" fill="#6a32ba" stroke="#6a32ba"></path><path d="M359 0L271 81.7L341 97.7Z" fill="#6a32ba" stroke="#6a32ba"></path><path d="M341 97.7L271 81.7L267 189.4Z" fill="#6a32ba" stroke="#6a32ba"></path><path d="M186 260.1L74 287.1L152 329.9Z" fill="#5214a8" stroke="#5214a8"></path><path d="M152 329.9L147 424.6L243 345.9Z" fill="#3f0b91" stroke="#3f0b91"></path><path d="M655 600L690 600L710 528.3Z" fill="#44089a" stroke="#44089a"></path><path d="M710 528.3L782 491.3L705 454.6Z" fill="#310e78" stroke="#310e78"></path><path d="M151 600L247 600L185 479.3Z" fill="#4905a2" stroke="#4905a2"></path><path d="M185 479.3L247 600L280 503.3Z" fill="#3a0c89" stroke="#3a0c89"></path><path d="M786 600L782 491.3L710 528.3Z" fill="#6229b4" stroke="#6229b4"></path><path d="M543 0L415 0L483 58.7Z" fill="#723bc0" stroke="#723bc0"></path><path d="M483 58.7L415 0L341 97.7Z" fill="#4905a2" stroke="#4905a2"></path><path d="M543 0L483 58.7L538 68.7Z" fill="#6229b4" stroke="#6229b4"></path><path d="M695 145.4L717 95.7L654 117.7Z" fill="#3a0c89" stroke="#3a0c89"></path><path d="M624 0L543 0L538 68.7Z" fill="#5a1fae" stroke="#5a1fae"></path><path d="M784 89.7L717 95.7L695 145.4Z" fill="#3a0c89" stroke="#3a0c89"></path><path d="M811 174.4L695 145.4L756 245.1Z" fill="#3a0c89" stroke="#3a0c89"></path><path d="M624 0L538 68.7L654 117.7Z" fill="#310e78" stroke="#310e78"></path><path d="M271 81.7L160 167.4L267 189.4Z" fill="#3a0c89" stroke="#3a0c89"></path><path d="M152 329.9L118 428.6L147 424.6Z" fill="#6229b4" stroke="#6229b4"></path><path d="M900 244.1L809 226.1L788 322.9Z" fill="#3f0b91" stroke="#3f0b91"></path><path d="M788 322.9L809 226.1L756 245.1Z" fill="#3a0c89" stroke="#3a0c89"></path><path d="M57 353.9L118 428.6L152 329.9Z" fill="#723bc0" stroke="#723bc0"></path><path d="M147 424.6L118 428.6L185 479.3Z" fill="#3a0c89" stroke="#3a0c89"></path><path d="M900 502.3L810 462.6L782 491.3Z" fill="#3f0b91" stroke="#3f0b91"></path><path d="M782 491.3L810 462.6L705 454.6Z" fill="#310e78" stroke="#310e78"></path><path d="M415 0L359 0L341 97.7Z" fill="#723bc0" stroke="#723bc0"></path><path d="M271 81.7L162 93.7L160 167.4Z" fill="#5a1fae" stroke="#5a1fae"></path><path d="M74 97.7L125 193.4L160 167.4Z" fill="#5a1fae" stroke="#5a1fae"></path><path d="M160 167.4L125 193.4L186 260.1Z" fill="#5214a8" stroke="#5214a8"></path><path d="M687 0L624 0L654 117.7Z" fill="#5a1fae" stroke="#5a1fae"></path><path d="M900 206.4L811 174.4L809 226.1Z" fill="#44089a" stroke="#44089a"></path><path d="M809 226.1L811 174.4L756 245.1Z" fill="#4905a2" stroke="#4905a2"></path><path d="M717 95.7L687 0L654 117.7Z" fill="#44089a" stroke="#44089a"></path><path d="M207 0L162 93.7L271 81.7Z" fill="#6229b4" stroke="#6229b4"></path><path d="M0 292.1L74 287.1L0 181.4Z" fill="#3f0b91" stroke="#3f0b91"></path><path d="M125 193.4L74 287.1L186 260.1Z" fill="#310e78" stroke="#310e78"></path><path d="M811 174.4L784 89.7L695 145.4Z" fill="#5a1fae" stroke="#5a1fae"></path><path d="M359 0L254 0L271 81.7Z" fill="#5214a8" stroke="#5214a8"></path><path d="M690 600L786 600L710 528.3Z" fill="#350d80" stroke="#350d80"></path><path d="M124 600L151 600L185 479.3Z" fill="#723bc0" stroke="#723bc0"></path><path d="M71 484.3L185 479.3L118 428.6Z" fill="#3a0c89" stroke="#3a0c89"></path><path d="M779 0L687 0L717 95.7Z" fill="#5214a8" stroke="#5214a8"></path><path d="M74 287.1L57 353.9L152 329.9Z" fill="#3a0c89" stroke="#3a0c89"></path><path d="M0 403.6L71 484.3L118 428.6Z" fill="#310e78" stroke="#310e78"></path><path d="M71 484.3L124 600L185 479.3Z" fill="#6a32ba" stroke="#6a32ba"></path><path d="M900 429.6L900 331.9L788 322.9Z" fill="#6229b4" stroke="#6229b4"></path><path d="M811 174.4L900 107.7L784 89.7Z" fill="#6a32ba" stroke="#6a32ba"></path><path d="M900 429.6L788 322.9L810 462.6Z" fill="#5214a8" stroke="#5214a8"></path><path d="M254 0L207 0L271 81.7Z" fill="#310e78" stroke="#310e78"></path><path d="M900 502.3L900 429.6L810 462.6Z" fill="#4905a2" stroke="#4905a2"></path><path d="M900 331.9L900 244.1L788 322.9Z" fill="#4905a2" stroke="#4905a2"></path><path d="M900 244.1L900 206.4L809 226.1Z" fill="#723bc0" stroke="#723bc0"></path><path d="M786 600L900 502.3L782 491.3Z" fill="#44089a" stroke="#44089a"></path><path d="M900 0L779 0L784 89.7Z" fill="#723bc0" stroke="#723bc0"></path><path d="M784 89.7L779 0L717 95.7Z" fill="#5214a8" stroke="#5214a8"></path><path d="M162 93.7L74 97.7L160 167.4Z" fill="#3f0b91" stroke="#3f0b91"></path><path d="M74 287.1L0 317.9L57 353.9Z" fill="#3f0b91" stroke="#3f0b91"></path><path d="M102 0L74 97.7L162 93.7Z" fill="#350d80" stroke="#350d80"></path><path d="M0 292.1L0 317.9L74 287.1Z" fill="#4905a2" stroke="#4905a2"></path><path d="M57 353.9L0 403.6L118 428.6Z" fill="#4905a2" stroke="#4905a2"></path><path d="M0 181.4L74 287.1L125 193.4Z" fill="#310e78" stroke="#310e78"></path><path d="M0 317.9L0 403.6L57 353.9Z" fill="#310e78" stroke="#310e78"></path><path d="M71 484.3L0 536.3L124 600Z" fill="#6229b4" stroke="#6229b4"></path><path d="M900 206.4L900 107.7L811 174.4Z" fill="#5a1fae" stroke="#5a1fae"></path><path d="M74 97.7L0 181.4L125 193.4Z" fill="#5a1fae" stroke="#5a1fae"></path><path d="M786 600L900 600L900 502.3Z" fill="#310e78" stroke="#310e78"></path><path d="M207 0L102 0L162 93.7Z" fill="#3a0c89" stroke="#3a0c89"></path><path d="M74 97.7L0 60.7L0 181.4Z" fill="#6229b4" stroke="#6229b4"></path><path d="M0 403.6L0 536.3L71 484.3Z" fill="#5a1fae" stroke="#5a1fae"></path><path d="M0 536.3L0 600L124 600Z" fill="#5214a8" stroke="#5214a8"></path><path d="M102 0L0 60.7L74 97.7Z" fill="#5a1fae" stroke="#5a1fae"></path><path d="M900 107.7L900 0L784 89.7Z" fill="#5214a8" stroke="#5214a8"></path><path d="M102 0L0 0L0 60.7Z" fill="#6229b4" stroke="#6229b4"></path></g></svg>